# xmcd
#
# Track frame offsets: 
#        150
#        49972
#        106841
#        144174
#        168275
#        203156
#        248016
#
# Disc length: 3949 seconds
#
# Revision: 0
# Processed by: cddbd v1.5.2PL0 Copyright (c) Steve Scherf et al.
# Submitted via: ExactAudioCopy v1.0b1
#
DISCID=550f6b07
DTITLE=Carl Schuricht - Brahms Ein deutsches Requiem ,CD3
DYEAR=2006
DGENRE=Classical
TTITLE0=Seling sind, die da Leid tragen
TTITLE1=Denn alles Fleisch es ist wie Grass
TTITLE2=Herr, lehre doch mich
TTITLE3=Wie lieblich sind deine Wohnungen
TTITLE4=Ihr habt nun Traurigkeit
TTITLE5=Denn wir haben keine blebende Statt
TTITLE6=Selig sind die Toten
EXTD=
EXTT0=
EXTT1=
EXTT2=
EXTT3=
EXTT4=
EXTT5=
EXTT6=
PLAYORDER=
